<mxfile host="app.diagrams.net" agent="Mozilla/5.0 (Windows NT 10.0; Win64; x64) AppleWebKit/537.36 (KHTML, like Gecko) Chrome/128.0.0.0 Safari/537.36 Edg/128.0.0.0" version="24.7.8">
  <diagram name="Page-1" id="EU_9g6YKppFDLxQ-yd42">
    <mxGraphModel dx="1042" dy="533" grid="1" gridSize="10" guides="1" tooltips="1" connect="1" arrows="1" fold="1" page="1" pageScale="1" pageWidth="850" pageHeight="1100" math="0" shadow="0">
      <root>
        <mxCell id="0" />
        <mxCell id="1" parent="0" />
        <mxCell id="SAXbf2U_s-x0KDOaSMLF-8" value="" style="edgeStyle=orthogonalEdgeStyle;rounded=0;orthogonalLoop=1;jettySize=auto;html=1;" parent="1" source="SAXbf2U_s-x0KDOaSMLF-1" edge="1">
          <mxGeometry relative="1" as="geometry">
            <mxPoint x="450" y="130" as="targetPoint" />
          </mxGeometry>
        </mxCell>
        <mxCell id="SAXbf2U_s-x0KDOaSMLF-1" value="start" style="rounded=1;whiteSpace=wrap;html=1;" parent="1" vertex="1">
          <mxGeometry x="390" y="30" width="120" height="60" as="geometry" />
        </mxCell>
        <mxCell id="SAXbf2U_s-x0KDOaSMLF-2" value="end" style="rounded=1;whiteSpace=wrap;html=1;" parent="1" vertex="1">
          <mxGeometry x="390" y="690" width="120" height="60" as="geometry" />
        </mxCell>
        <mxCell id="0Gw7U9aOs5xz0O3_zmvB-9" value="" style="edgeStyle=orthogonalEdgeStyle;rounded=0;orthogonalLoop=1;jettySize=auto;html=1;" edge="1" parent="1" source="0Gw7U9aOs5xz0O3_zmvB-7" target="0Gw7U9aOs5xz0O3_zmvB-8">
          <mxGeometry relative="1" as="geometry" />
        </mxCell>
        <mxCell id="0Gw7U9aOs5xz0O3_zmvB-7" value="f_name: str = input&lt;div&gt;what&#39;s your first name?&lt;/div&gt;" style="shape=card;whiteSpace=wrap;html=1;" vertex="1" parent="1">
          <mxGeometry x="370" y="130" width="160" height="100" as="geometry" />
        </mxCell>
        <mxCell id="0Gw7U9aOs5xz0O3_zmvB-11" value="" style="edgeStyle=orthogonalEdgeStyle;rounded=0;orthogonalLoop=1;jettySize=auto;html=1;" edge="1" parent="1" source="0Gw7U9aOs5xz0O3_zmvB-8" target="0Gw7U9aOs5xz0O3_zmvB-10">
          <mxGeometry relative="1" as="geometry" />
        </mxCell>
        <mxCell id="0Gw7U9aOs5xz0O3_zmvB-8" value="l_name: str = input&lt;div&gt;what&#39;s your last name?&lt;/div&gt;" style="shape=card;whiteSpace=wrap;html=1;" vertex="1" parent="1">
          <mxGeometry x="370" y="280" width="160" height="100" as="geometry" />
        </mxCell>
        <mxCell id="0Gw7U9aOs5xz0O3_zmvB-16" value="" style="edgeStyle=orthogonalEdgeStyle;rounded=0;orthogonalLoop=1;jettySize=auto;html=1;" edge="1" parent="1" source="0Gw7U9aOs5xz0O3_zmvB-10" target="0Gw7U9aOs5xz0O3_zmvB-13">
          <mxGeometry relative="1" as="geometry" />
        </mxCell>
        <mxCell id="0Gw7U9aOs5xz0O3_zmvB-10" value="print&lt;div&gt;&#39;*&#39;+f_name+&#39;*&#39;+l_name+&#39;*&#39;&lt;/div&gt;" style="shape=document;whiteSpace=wrap;html=1;boundedLbl=1;" vertex="1" parent="1">
          <mxGeometry x="370" y="440" width="160" height="80" as="geometry" />
        </mxCell>
        <mxCell id="0Gw7U9aOs5xz0O3_zmvB-17" value="" style="edgeStyle=orthogonalEdgeStyle;rounded=0;orthogonalLoop=1;jettySize=auto;html=1;" edge="1" parent="1" source="0Gw7U9aOs5xz0O3_zmvB-13" target="SAXbf2U_s-x0KDOaSMLF-2">
          <mxGeometry relative="1" as="geometry" />
        </mxCell>
        <mxCell id="0Gw7U9aOs5xz0O3_zmvB-13" value="print&lt;div&gt;&#39;*&#39;+f_name+&#39;*&#39;+l_name+&#39;*&#39;&lt;/div&gt;" style="shape=document;whiteSpace=wrap;html=1;boundedLbl=1;" vertex="1" parent="1">
          <mxGeometry x="370" y="550" width="160" height="80" as="geometry" />
        </mxCell>
      </root>
    </mxGraphModel>
  </diagram>
</mxfile>
